<svg width="548" height="473" viewBox="0 0 548 473" fill="none" xmlns="http://www.w3.org/2000/svg">
<path d="M84.4951 441.731C92.4787 484.843 71.8543 464.13 60.5442 448.384C-21.4916 297.771 -5.36091 205.812 36.3761 146.336C22.853 141.014 24.6177 107.083 32.6014 76.4791C38.9883 51.9959 78.7291 80.7548 97.8012 98.1947C129.729 84.2131 164.854 78.8057 186.952 82.4669C193.383 69.1608 210.77 45.8751 228.866 59.1812C246.962 72.4873 268.341 81.5797 276.768 84.4627C275.562 88.4582 273.33 93.8889 270.074 99.4217C319.872 113.443 375.008 136.023 410.176 168.956C411.391 159.642 424.199 144.473 465.714 158.311C503.673 170.964 525.613 139.12 525.025 113.815C519.311 116.203 512.242 117.056 503.637 115.732C451.743 107.748 490.33 72.4872 514.947 91.1158C521.557 96.1179 524.809 104.526 525.025 113.815C525.613 139.12 503.673 170.964 465.714 158.311C424.199 144.473 411.391 159.642 410.176 168.956C417.714 176.015 424.334 183.549 429.788 191.577C489 278.732 451.743 418.445 417.812 449.049C383.882 479.653 358.6 471.67 363.257 462.355C367.915 453.041 379.225 434.413 363.257 441.731C361.676 442.456 359.175 443.038 355.939 443.498C353.943 445.349 345.294 452.376 326.666 465.682C308.037 478.988 313.138 457.393 318.017 444.933C292.281 444.691 261.876 443.065 242.837 441.731C237.515 446.61 223.277 458.23 208.907 465.682C197.597 471.004 188.726 454.594 186.952 441.731C174.178 444.924 113.325 443.062 84.4951 441.731Z" fill="#FFBBCA"/>
<path d="M41.2503 139.683C39.5911 141.855 37.9651 144.072 36.3761 146.336M318.017 444.933C292.281 444.691 261.876 443.065 242.837 441.731C237.515 446.61 223.277 458.231 208.907 465.682C197.597 471.004 188.726 454.594 186.952 441.731C174.178 444.924 113.325 443.062 84.4951 441.731C92.4787 484.843 71.8543 464.13 60.5442 448.384C-21.4916 297.771 -5.36091 205.812 36.3761 146.336M318.017 444.933C313.138 457.393 308.037 478.988 326.666 465.682C345.294 452.376 353.943 445.349 355.939 443.498M318.017 444.933C333.52 445.079 347.329 444.723 355.939 443.498M355.939 443.498C359.175 443.038 361.676 442.456 363.257 441.731C379.225 434.413 367.915 453.041 363.257 462.355C358.6 471.67 383.882 479.653 417.812 449.049C451.743 418.445 489 278.732 429.788 191.577C424.334 183.549 417.714 176.015 410.176 168.956M212.899 80.4709C214.419 82.5231 215.592 84.7056 216.516 86.9568C223.685 104.411 215.939 125.997 239.511 123.05C253.563 121.294 263.751 110.165 270.074 99.4217M36.3761 146.336C22.853 141.014 24.6177 107.083 32.6014 76.4791C38.9883 51.9959 78.7291 80.7548 97.8012 98.1947C129.729 84.2131 164.854 78.8057 186.952 82.4669C193.383 69.1608 210.77 45.8751 228.866 59.1812C246.962 72.4873 268.341 81.5797 276.768 84.4627C275.562 88.4582 273.33 93.8889 270.074 99.4217M270.074 99.4217C319.872 113.443 375.008 136.023 410.176 168.956M410.176 168.956C411.391 159.642 424.199 144.473 465.714 158.311C517.608 175.609 539.563 109.744 514.947 91.1158C490.33 72.4872 451.743 107.748 503.637 115.732C555.53 123.716 551.538 52.5281 531.579 43.2139" stroke="#DC7082" stroke-width="3.99182"/>
<path d="M109.715 148.485L109.376 151.86M124.282 147.063L123.944 150.438M117.226 163.795C134.442 162.114 139.222 156.299 139.706 147.562C140.19 138.825 129.676 133.835 114.446 135.322C99.2164 136.809 95.1632 143.221 96.9245 154.413C98.3335 163.367 111.046 164.398 117.226 163.795Z" stroke="#DC7082" stroke-width="3.99182" stroke-linecap="round" stroke-linejoin="round"/>
<path d="M74.5157 139.018C76.068 139.018 78.9067 140.615 77.8422 147.002C76.9551 152.324 74.7374 153.655 73.185 153.655C71.4109 153.433 68.1287 151.659 69.1932 146.336C70.2577 141.014 73.185 139.24 74.5157 139.018Z" fill="#DE7486"/>
<path d="M160.548 128.373C162.1 128.373 164.939 129.97 163.874 136.357C162.987 141.679 160.77 143.01 159.217 143.01C157.443 142.788 154.161 141.014 155.225 135.691C156.29 130.369 159.217 128.595 160.548 128.373Z" fill="#DE7486"/>
<path d="M74.5157 139.018C76.068 139.018 78.9067 140.615 77.8422 147.002C76.9551 152.324 74.7374 153.655 73.185 153.655C71.4109 153.433 68.1287 151.659 69.1932 146.336C70.2577 141.014 73.185 139.24 74.5157 139.018Z" stroke="#DE7486" stroke-width="3.99182"/>
<path d="M160.548 128.373C162.1 128.373 164.939 129.97 163.874 136.357C162.987 141.679 160.77 143.01 159.217 143.01C157.443 142.788 154.161 141.014 155.225 135.691C156.29 130.369 159.217 128.595 160.548 128.373Z" stroke="#DE7486" stroke-width="3.99182"/>
<path d="M73.8506 141.679H75.1812M159.675 131.034H161.005" stroke="white" stroke-width="6.65304" stroke-linecap="round"/>
<path d="M187.286 117.051C191.729 136.08 207.435 170.815 234.712 157.52C268.808 140.902 194.311 113.053 187.286 117.051Z" fill="#FFBBCA"/>
<path d="M252.58 101.662C262.787 105.083 258.452 115.736 255.727 123.093C255.236 124.417 254.611 126.337 253.681 128.435C253.858 130.56 256.656 135.127 266.433 136.39C276.209 137.653 279.994 182.528 280.665 204.807C335.433 121.619 267.641 72.1042 232.846 40.2425C216.695 25.4521 189.403 15.2287 145.105 17.6908C44.9913 23.2549 23.8889 78.4155 25.8518 105.3C32.9561 96.8595 51.9471 85.4924 107.766 73.1361C185.725 55.8787 242.373 98.24 252.58 101.662Z" fill="#EA4335"/>
<path d="M29.4856 147.819C68.24 134.484 145.931 113.791 187.862 121.755C195.058 123.121 201.201 125.332 205.913 128.569C217.639 136.624 226.53 140.141 233.31 140.9C245.596 142.274 250.951 134.591 253.681 128.435C254.611 126.337 255.236 124.417 255.727 123.093C258.452 115.736 262.787 105.083 252.58 101.662C242.373 98.24 185.725 55.8787 107.766 73.1361C51.9471 85.4924 32.9561 96.8595 25.8518 105.3C23.0339 108.648 22.0862 111.536 21.4521 113.842C19.2193 121.964 20.2123 150.905 29.4856 147.819Z" fill="white"/>
<path d="M25.8518 105.3C32.9561 96.8595 51.9471 85.4924 107.766 73.1361C185.725 55.8787 242.373 98.24 252.58 101.662C262.787 105.083 258.452 115.736 255.727 123.093C255.236 124.417 254.611 126.337 253.681 128.435M25.8518 105.3C23.0339 108.648 22.0862 111.536 21.4521 113.842C19.2193 121.964 20.2123 150.905 29.4856 147.819C68.24 134.484 145.931 113.791 187.862 121.755C195.058 123.121 201.201 125.332 205.913 128.569C217.639 136.624 226.53 140.141 233.31 140.9C245.596 142.274 250.951 134.591 253.681 128.435M25.8518 105.3C23.8889 78.4155 44.9913 23.2549 145.105 17.6908C189.403 15.2287 216.695 25.4521 232.846 40.2425C267.641 72.1042 335.433 121.619 280.665 204.807C279.994 182.528 276.209 137.653 266.433 136.39C256.656 135.127 253.858 130.56 253.681 128.435" stroke="#C51E3A" stroke-width="3.99182"/>
<path d="M281.422 220.184C288.771 220.184 294.728 214.227 294.728 206.878C294.728 199.53 288.771 193.572 281.422 193.572C274.074 193.572 268.116 199.53 268.116 206.878C268.116 214.227 274.074 220.184 281.422 220.184Z" fill="white"/>
<path d="M281.422 220.184C288.771 220.184 294.728 214.227 294.728 206.878C294.728 199.53 288.771 193.572 281.422 193.572C274.074 193.572 268.116 199.53 268.116 206.878C268.116 214.227 274.074 220.184 281.422 220.184Z" stroke="#C51E3A" stroke-width="3.99182"/>
</svg>
