<svg width="400" height="142" viewBox="0 0 400 142" fill="none" xmlns="http://www.w3.org/2000/svg">
<path d="M200 2C249.266 2 293.839 4.01071 326.068 7.25488C342.195 8.87819 355.168 10.8041 364.075 12.9238C368.545 13.9875 371.882 15.0751 374.061 16.1465C375.154 16.6845 375.847 17.1674 376.241 17.5576C376.497 17.8113 376.559 17.9556 376.571 17.9961V18.2148L376.628 18.4482L397.992 106.186C397.916 107.806 396.953 109.66 394.582 111.728C392.12 113.875 388.372 116.039 383.365 118.155C373.368 122.381 358.798 126.23 340.698 129.479C304.53 135.972 254.653 140 200 140C145.347 140 95.4704 135.972 59.3018 129.479C41.2015 126.23 26.6323 122.381 16.6348 118.155C11.6277 116.039 7.88043 113.875 5.41797 111.728C3.0474 109.66 2.08342 107.806 2.00684 106.186L23.3721 18.4482L23.4287 18.2148V17.9961C23.4411 17.9556 23.5028 17.8113 23.7588 17.5576C24.1525 17.1674 24.8458 16.6845 25.9395 16.1465C28.1176 15.0751 31.4552 13.9875 35.9248 12.9238C44.832 10.8041 57.8047 8.87819 73.9316 7.25488C106.161 4.01071 150.734 2 200 2Z" fill="#FFBBCA" stroke="#DC7082" stroke-width="4"/>
<path d="M200 37.6909C293.999 37.6909 370.2 30.0708 370.2 20.6709C370.2 11.271 293.999 3.65088 200 3.65088C106.001 3.65088 29.7998 11.271 29.7998 20.6709C29.7998 30.0708 106.001 37.6909 200 37.6909Z" fill="#DC7082"/>
<path d="M200 5.65088C246.955 5.65088 289.435 7.55494 320.15 10.6265C335.52 12.1634 347.881 13.9868 356.365 15.9927C360.623 16.9994 363.797 18.0274 365.864 19.0376C366.903 19.545 367.553 19.9969 367.918 20.356C368.069 20.5051 368.142 20.6102 368.177 20.6704C368.142 20.7305 368.07 20.8361 367.918 20.9858C367.553 21.3449 366.903 21.7968 365.864 22.3042C363.797 23.3144 360.623 24.3424 356.365 25.3491C347.881 27.355 335.52 29.1784 320.15 30.7153C289.435 33.7869 246.955 35.6909 200 35.6909C153.045 35.6909 110.565 33.7869 79.8496 30.7153C64.4798 29.1784 52.1191 27.355 43.6348 25.3491C39.3766 24.3424 36.203 23.3144 34.1357 22.3042C33.0973 21.7967 32.4467 21.3449 32.082 20.9858C31.9295 20.8357 31.8569 20.7305 31.8223 20.6704C31.8571 20.6102 31.9301 20.5055 32.082 20.356C32.4467 19.9969 33.0973 19.5451 34.1357 19.0376C36.203 18.0274 39.3766 16.9994 43.6348 15.9927C52.1191 13.9868 64.4798 12.1634 79.8496 10.6265C110.565 7.55493 153.045 5.65088 200 5.65088Z" stroke="#DC7082" stroke-width="4"/>
<circle cx="200" cy="90" r="23" fill="#FBBF24"/>
<path d="M198.639 73.3477H200.678V105.199H198.639V73.3477ZM204.105 83.8242C204.035 83.1445 203.818 82.5645 203.455 82.084C203.104 81.6035 202.611 81.2402 201.979 80.9941C201.346 80.748 200.59 80.625 199.711 80.625C198.855 80.625 198.111 80.748 197.479 80.9941C196.857 81.2402 196.383 81.5859 196.055 82.0312C195.727 82.4648 195.562 82.9629 195.562 83.5254C195.551 84.3809 195.902 85.0488 196.617 85.5293C197.344 86.0098 198.346 86.4082 199.623 86.7246L201.908 87.2695C204.322 87.8086 206.191 88.6816 207.516 89.8887C208.852 91.084 209.525 92.7012 209.537 94.7402C209.537 96.2754 209.145 97.6172 208.359 98.7656C207.574 99.9141 206.443 100.799 204.967 101.42C203.49 102.041 201.727 102.352 199.676 102.352C197.625 102.352 195.838 102.035 194.314 101.402C192.803 100.77 191.631 99.8379 190.799 98.6074C189.967 97.3652 189.521 95.8477 189.463 94.0547H194.596C194.666 94.8867 194.918 95.5898 195.352 96.1641C195.785 96.7383 196.371 97.1719 197.109 97.4648C197.848 97.7578 198.686 97.9043 199.623 97.9043C200.537 97.9043 201.34 97.7695 202.031 97.5C202.723 97.2305 203.256 96.8555 203.631 96.375C204.006 95.8828 204.193 95.3262 204.193 94.7051C204.193 94.1426 204.029 93.668 203.701 93.2812C203.373 92.8828 202.893 92.5488 202.26 92.2793C201.639 91.998 200.836 91.7344 199.852 91.4883L197.057 90.8203C194.83 90.2695 193.119 89.4316 191.924 88.3066C190.74 87.1699 190.148 85.6934 190.148 83.877C190.148 82.3652 190.559 81.0293 191.379 79.8691C192.211 78.709 193.354 77.8066 194.807 77.1621C196.271 76.5176 197.924 76.1953 199.764 76.1953C201.615 76.1953 203.25 76.5176 204.668 77.1621C206.086 77.7949 207.188 78.6914 207.973 79.8516C208.758 81 209.162 82.3242 209.186 83.8242H204.105Z" fill="#DC7082"/>
</svg>
