<svg xmlns="http://www.w3.org/2000/svg" width="42" height="42" viewBox="0 0 42 42" fill="none">
<circle cx="21" cy="21" r="19.5" fill="#FDE68A" stroke="#FBBC05" stroke-width="3"/>
<path d="M12.2917 21.6741C11.977 21.2435 11.6622 20.8129 11.3475 20.3824C10.4864 21.0118 9.62524 21.6413 8.7641 22.2707C9.07883 22.7013 9.39356 23.1319 9.7083 23.5624C9.97861 23.9322 10.2489 24.3021 10.5192 24.6719C12.2912 27.096 14.0631 29.5201 15.8351 31.9442L16.773 33.2273L18.0624 32.298C20.3746 30.6313 22.6868 28.9646 24.999 27.298C26.9396 25.8991 28.8802 24.5003 30.8208 23.1015C31.1924 22.8337 31.564 22.5658 31.9356 22.298C32.3682 21.9861 32.8009 21.6742 33.2335 21.3624C32.6098 20.4971 31.9861 19.6318 31.3624 18.7665C30.9297 19.0783 30.4971 19.3902 30.0644 19.702C29.6928 19.9699 29.3212 20.2377 28.9496 20.5056C27.009 21.9044 25.0684 23.3032 23.1278 24.702C20.8156 26.3687 18.5034 28.0354 16.1912 29.702L18.4185 30.0558C16.6465 27.6317 14.8746 25.2076 13.1026 22.7835C12.8323 22.4137 12.562 22.0439 12.2917 21.6741Z" fill="#FBBC05"/>
</svg>