<svg width="903" height="820" viewBox="0 0 903 820" fill="none" xmlns="http://www.w3.org/2000/svg">
<path d="M334.775 143.063C338.218 142.988 341.241 140.809 342.678 137.68C349.97 121.808 370.022 89.1487 381.5 86.5C391.295 84.2396 426.55 126.008 437.301 140.621C438.425 142.149 440.009 143.273 441.838 143.777C519.123 165.063 587.744 194.458 686.885 265.482C688.247 266.458 689.906 267.003 691.583 266.989C723.12 266.732 743.705 261.984 755 272.5C766.358 283.075 768.417 321.676 768.028 340.805C768.012 341.606 768.101 342.358 768.316 343.13C804.671 473.264 862.534 747.894 805.5 814.5C753.802 874.875 737.148 938.163 734.422 969.59C734.011 974.338 729.86 978.044 725.123 977.521L-306.972 863.716C-312.398 863.118 -315.644 857.38 -313.363 852.421L-62.3677 306.886C-61.7986 305.649 -60.9416 304.59 -59.8408 303.789C46.7129 226.257 217.026 145.633 334.775 143.063Z" fill="#FFBBCA" stroke="#DE7486" stroke-width="8" stroke-linecap="round"/>
<path d="M728.5 287.5C727 305.5 724.5 315 726.5 325.5C729.742 342.522 751.5 361 768 336.5" stroke="#DE7486" stroke-width="8" stroke-linecap="round"/>
<path d="M-169.54 468.778C-147.668 464.204 226.916 187.827 322.151 175.962C435.468 161.845 612.653 217.292 677.053 303.075C741.453 388.858 794.579 547.518 775.631 670.32C753.654 812.75 582.652 1159.16 491.036 1279L-164.196 954.036L-246.503 559.652L-169.54 468.778Z" fill="#DC7082" fill-opacity="0.2"/>
<path d="M604.884 342.3C608.014 343.227 612.784 348.14 606.826 360.381C601.862 370.582 596.597 371.942 593.467 371.015C590.022 369.509 584.464 363.974 589.786 353.879C595.109 343.783 602.069 341.953 604.884 342.3Z" fill="#DE7486" stroke="#DE7486" stroke-width="8"/>
<path d="M422.871 231.873C426.033 232.679 430.987 237.407 425.501 249.867C420.929 260.25 415.719 261.809 412.556 261.002C409.057 259.629 403.292 254.309 408.225 244.018C413.159 233.727 420.044 231.633 422.871 231.873Z" fill="#DE7486" stroke="#DE7486" stroke-width="8"/>
<path d="M487.189 285.143L480.795 291.684M531.063 310.268L524.669 316.81M484.017 332.302C535.868 361.996 558.863 358.839 574.291 341.146C589.72 323.453 567.726 292.492 521.858 266.225C475.989 239.957 454.109 245.793 441.143 273.059C430.771 294.871 465.404 321.643 484.017 332.302Z" stroke="#DC7082" stroke-width="8" stroke-linecap="round" stroke-linejoin="round"/>
</svg>
