<svg width="102" height="102" viewBox="0 0 102 102" fill="none" xmlns="http://www.w3.org/2000/svg">
<circle cx="51" cy="51" r="50.5" fill="#C1C3FB" stroke="#8F77D1"/>
<mask id="mask0_730_227" style="mask-type:alpha" maskUnits="userSpaceOnUse" x="1" y="1" width="100" height="100">
<circle cx="51" cy="51" r="49.5" fill="#C1C3FB" stroke="#8F77D1"/>
</mask>
<g mask="url(#mask0_730_227)">
<path d="M18.3765 48.1369C10.0912 59.3594 10.4364 74.8572 11.6447 81.2033L18.3765 107H85L90.3553 81.2033C91.5636 74.8572 91.9088 59.3594 83.6235 48.1369C82.7261 46.9215 81.8482 45.785 80.9835 44.723C83.1983 42.9291 84.2254 39.3564 84.5 38.539C85 37.0507 84 35.5625 82.5 34.0742C81 32.5859 75 29.1134 73.5 28.6172C72 28.1209 70.5 27.129 67.5 27.625C65.1 28.0217 62.8333 30.4575 62 31.6259C58.7373 30.8884 55.1431 30.6017 51 30.6017C46.8569 30.6017 43.2627 30.8884 40 31.6259C37.3333 30.2923 31.1 27.5259 27.5 27.129C23 26.633 21.6235 27.6251 20 29.1134C18.3765 30.6017 17 38.4899 17 41.0195C17 43.9961 18 47.4687 18.3765 48.1369Z" fill="#FFBBCA"/>
<path d="M67.5 31.6259C68.1667 31.4498 69.7 31.2961 70.5 32.0898C70.9064 32.493 71.7258 34.2893 72.5553 36.4128C73.7668 39.5144 74.5 42.5078 75 44.4922C75.4851 46.4173 77 47.4687 78 46.9726C78.386 46.7811 79.5913 45.8506 80.9835 44.723M80.9835 44.723C81.8482 45.785 82.7261 46.9215 83.6235 48.1369C91.9088 59.3594 91.5636 74.8572 90.3553 81.2033L85 107H18.3765L11.6447 81.2033C10.4364 74.8572 10.0912 59.3594 18.3765 48.1369C18 47.4687 17 43.9961 17 41.0195C17 38.4899 18.3765 30.6017 20 29.1134C21.6235 27.6251 23 26.633 27.5 27.129C31.1 27.5259 37.3333 30.2923 40 31.6259C43.2627 30.8884 46.8569 30.6017 51 30.6017C55.1431 30.6017 58.7373 30.8884 62 31.6259C62.8333 30.4575 65.1 28.0217 67.5 27.625C70.5 27.129 72 28.1209 73.5 28.6172C75 29.1134 81 32.5859 82.5 34.0742C84 35.5625 85 37.0507 84.5 38.539C84.2254 39.3564 83.1983 42.9291 80.9835 44.723Z" stroke="#DC7082"/>
<path d="M38.9999 50C38.9999 49 38.4998 47 37.4999 47C36.5 47 36 49 36 50C36 51 36.4999 53 37.4999 53C38.4999 53 38.9999 51 38.9999 50Z" fill="#DC7082" stroke="#DC7082"/>
<path d="M65.9999 50C65.9999 49 65.4998 47 64.4999 47C63.5 47 63 49 63 50C63 51 63.4999 53 64.4999 53C65.4999 53 65.9999 51 65.9999 50Z" fill="#DC7082" stroke="#DC7082"/>
<path d="M49 51C49 50.6667 48.8333 50 48.5 50C48.1667 50 48 50.6667 48 51C48 51.3333 48.1666 52 48.5 52C48.8333 52 49 51.3333 49 51Z" fill="#DC7082" stroke="#DC7082"/>
<path d="M54 51C54 50.6667 53.8333 50 53.5 50C53.1667 50 53 50.6667 53 51C53 51.3333 53.1666 52 53.5 52C53.8333 52 54 51.3333 54 51Z" fill="#DC7082" stroke="#DC7082"/>
<path d="M45 51.237C45 47.4444 47.7032 47 51 47C54.2968 47 57 47.4444 57 51.237C57 55.0296 53.5714 55 51 55C48.4286 55 45 55.0296 45 51.237Z" stroke="#DC7082"/>
</g>
</svg>
