<svg width="497" height="348" viewBox="0 0 497 348" fill="none" xmlns="http://www.w3.org/2000/svg">
<path d="M26.2942 230.483C22.6876 248.515 18.1468 273.666 18.1468 287.393C15.4469 288.449 12.2562 292.689 9.52907 300.665C6.64223 309.108 9.05182 316.704 11.0835 320.168C18.4974 332.808 41.2729 319.424 49.7065 314.872C53.7495 312.69 68.026 313.521 89.8021 315.112C123.763 317.595 147.14 322.592 164.887 323.92C183.549 325.317 192.629 325.792 210.757 327.12C252.172 330.154 264.87 338.016 278.09 344.44C282.878 346.766 292.605 346.591 304.189 345.272C308.693 344.758 309.923 341.312 310.843 338.632C312.613 333.477 313.127 327.424 314.259 321.568C314.787 318.833 315.84 316.768 320.579 315.68C344.477 310.193 362.992 316.192 385.069 313.537C425.613 308.659 435.807 315.648 448.304 316.72C453.69 317.182 457.651 319.392 460.828 318.072C462.205 316.752 463.105 314.112 464.019 311.697C464.933 309.281 465.833 307.169 468.123 301.793C468.123 290.913 466.76 286.753 466.528 280.113C465.847 270.834 465.397 264.93 464.933 257.73C461.279 239.843 460.502 224.06 448.761 204.644C442.8 194.786 436.821 180.31 429.551 166.556C422.685 153.567 414.667 141.223 404.425 134.022C385.764 120.903 372.804 110.972 364.691 105.247C356.721 99.6232 342.327 85.1966 337.828 79.9008C342.827 79.5495 347.338 78.6769 350.653 76.9817C352.248 76.1657 354.148 74.4874 353.577 72.1578C352.207 66.566 350.47 60.7746 346.957 55.6063C336.267 39.8788 327.263 27.1339 318.097 28.4711C308.996 29.7991 296.559 26.6982 282.174 36.4949C270.816 44.2307 262.534 48.7698 255.149 47.1266C246.735 45.2546 216.719 42.0732 184.516 41.5268C153.399 40.9988 131.732 42.0867 127.232 44.1986C122.187 37.7348 118.573 37.7692 116.058 34.5534C103.506 21.1938 90.8522 12.73 83.5708 13.29C76.7529 20.2338 72.1683 28.3248 61.9719 46.129C54.4996 59.1766 46.6519 73.0639 52.9383 77.016C55.2317 78.4579 64.1467 73.7536 72.2523 76.2449C74.5802 76.9604 76.8413 78.2694 78.8597 80.4879C81.7709 83.6878 61.1292 127.799 45.6228 166.925C42.6775 174.357 33.0074 196.921 26.2942 230.483Z" fill="#FFBBCA"/>
<path d="M15.0405 274.594C15.0405 260.866 15.4905 248.514 19.0971 230.483C25.8103 196.92 35.4803 174.357 38.4257 166.925C53.9321 127.798 74.5738 83.6877 71.6626 80.4878C62.6163 70.5444 48.6933 78.8718 45.7412 77.0159C39.4547 73.0637 47.3025 59.1765 54.7748 46.1288C64.9712 28.3247 69.5558 20.2337 76.3737 13.2899C83.6551 12.7299 96.309 21.1937 108.861 34.5532C111.376 37.7691 113.626 40.937 118.671 47.4008" stroke="black" stroke-width="2" stroke-linecap="round"/>
<path d="M66.8567 73H90.0373" stroke="black" stroke-width="2" stroke-linecap="round"/>
<path d="M120.035 44.199C124.535 42.0871 146.202 40.9991 177.319 41.5271C209.522 42.0735 239.538 45.255 247.951 47.1269C255.337 48.7701 263.619 44.231 274.977 36.4952C289.362 26.6986 301.799 29.7995 310.9 28.4715C320.066 27.1342 329.07 39.8791 339.76 55.6066C343.273 60.775 345.01 66.5663 346.38 72.1581C346.951 74.4878 345.051 76.166 343.456 76.982C336.093 80.7477 322.825 80.4539 311.425 79.4059C307.335 78.3419 303.68 76.742 300.728 74.0861C299.576 72.4861 299.126 70.3742 297.299 68.1982" stroke="black" stroke-width="2" stroke-linecap="round"/>
<path d="M331.388 82.5996C335.888 87.8954 349.523 99.6231 357.493 105.247C365.607 110.972 378.567 120.902 397.228 134.022C418.315 148.848 429.974 185.476 441.564 204.644C453.305 224.059 454.082 239.843 457.736 257.73C458.2 264.93 458.649 270.834 459.331 280.113C459.563 286.753 459.563 297.313 459.563 308.192" stroke="black" stroke-width="2" stroke-linecap="round"/>
<path d="M10.9496 287.393C8.24967 288.449 5.05892 292.688 2.33181 300.664C-0.555031 309.107 1.85456 316.704 3.88626 320.168C11.3001 332.808 34.0756 319.424 42.5093 314.872C46.5522 312.69 60.8288 313.52 82.6049 315.112C116.565 317.594 139.943 322.591 157.69 323.919C176.352 325.316 185.431 325.791 203.56 327.119C244.975 330.153 257.673 338.015 270.893 344.439C275.68 346.765 285.408 346.591 296.991 345.271C301.496 344.757 302.725 341.311 303.646 338.631C305.416 333.476 305.93 327.423 307.061 321.568C307.59 318.833 308.643 316.768 313.381 315.68C337.279 310.193 355.795 316.192 377.871 313.536C418.416 308.658 428.61 315.648 441.107 316.72C446.493 317.182 450.454 319.392 453.631 318.072C455.008 316.752 455.908 314.112 456.822 311.696C457.735 309.28 458.635 307.168 460.926 301.792" stroke="black" stroke-width="2" stroke-linecap="round"/>
<path d="M474.146 66.4139C475.241 69.0548 476.356 72.1644 477.327 75.6541C476.85 75.7295 476.375 75.7319 475.899 75.6616C472.272 75.1256 465.053 74.5328 460.899 67.8939C457.736 62.838 455.069 57.1025 456.625 52.9743C457.327 51.1104 459.127 50.0545 462.577 52.5184C466.026 54.9823 471.633 60.3505 474.146 66.4139Z" fill="#FFBBCA"/>
<path d="M429.565 165.795C443.964 160.515 455.881 154.099 463.374 147.443C468.26 143.104 472.258 133.332 477.255 116.86C483.52 96.212 478.667 77.3176 474.146 66.4139C471.633 60.3505 466.026 54.9823 462.577 52.5184C459.127 50.0544 457.327 51.1104 456.625 52.9743C455.069 57.1025 457.736 62.838 460.899 67.8939C465.053 74.5328 472.272 75.1256 475.899 75.6616C477.712 75.9295 479.526 75.1416 481.353 73.2857C490.877 63.6117 488.198 43.2066 489.33 29.8631C489.562 24.5512 489.562 16.1035 489.112 10.6957C488.662 5.28784 487.762 3.17592 486.834 1" stroke="black" stroke-width="2" stroke-linecap="round"/>
<path d="M107.387 110.541C100.372 113.074 95.679 115.012 93.5042 116.604C91.0559 118.397 89.9476 121.401 89.5388 124.269C89.046 127.727 90.7488 134.16 93.3325 141.192C94.7569 145.069 97.8375 145.394 100.822 145.874C105.384 146.607 110.363 143.821 113.904 139.672C116.422 136.72 116.381 132.309 115.841 128.476C115.6 126.763 114.222 125.91 112.452 125.421C110.682 124.931 108.254 124.931 106.598 125.406C104.943 125.881 104.133 126.831 103.716 128.586C103.299 130.342 103.299 132.875 103.704 134.654C104.109 136.434 104.918 137.384 105.752 138.362" stroke="black" stroke-width="2" stroke-linecap="round"/>
<path d="M214.495 112.46C202.083 112.46 194.341 114.043 192.027 117.074C190.186 119.487 189.967 125.843 190.371 133.829C190.625 138.847 194.038 141.547 197.166 143.624C204.146 148.26 219.597 147.956 226.743 145.572C232.676 143.592 230.847 130.112 229.629 122.874C228.207 114.427 214.266 115.338 207.185 115.971C204.378 116.222 203.343 117.871 202.517 119.473C200.818 122.768 200.595 127.148 201.81 131.138C204.866 141.185 217.193 134.851 222.381 133.254C223.567 132.889 224.29 131.666 224.437 130.544C224.584 129.421 224.044 128.155 222.957 127.028C221.87 125.9 220.251 124.951 218.472 124.461C216.694 123.972 214.805 123.972 212.86 123.972" stroke="black" stroke-width="2" stroke-linecap="round"/>
<path d="M151.539 123.972C137.934 123.972 130.853 125.238 126.209 129.229C123.32 131.712 122.383 138.007 122.24 144.233C122.176 147.015 123.985 148.877 126.839 150.33C143.401 158.766 160.5 153.079 165.422 150.205C167.503 148.99 169.518 147.965 170.879 145.893C174.188 140.857 171.439 131.992 169.534 126.869C169.045 125.552 168.447 124.317 166.82 123.665C158.366 123.329 154.278 124.289 151.694 124.927C150.459 125.248 149.38 125.565 146.633 125.891" stroke="black" stroke-width="2" stroke-linecap="round"/>
<path d="M133.552 131.646L136.005 134.525" stroke="black" stroke-width="2" stroke-linecap="round"/>
<path d="M152.356 133.562L153.991 136.441" stroke="black" stroke-width="2" stroke-linecap="round"/>
</svg>
