<svg width="183" height="121" viewBox="0 0 183 121" fill="none" xmlns="http://www.w3.org/2000/svg">
<path d="M45.1196 113.578C45.1196 111.457 45.5905 105.437 46.2277 102.689C47.0644 99.0813 47.5736 95.8298 48.6033 91.9942C49.1164 90.0827 49.7137 88.5392 50.1513 87.1493C50.7154 85.3572 51.0644 83.4647 51.301 82.1949C51.5584 80.8135 52.1725 79.4223 52.7265 78.1132C53.3386 76.6672 55.0117 73.4965 56.4908 71.4539C57.5417 70.0025 58.6689 68.1653 59.8971 66.7802C61.7034 64.7431 62.2358 63.1717 63.0692 61.865C64.2948 59.9437 65.484 58.7345 66.4387 57.6229C67.4327 56.4655 66.3638 54.3782 65.5732 51.0527C64.9109 48.2672 63.829 46.1317 63.3914 44.8226C62.7959 43.0407 62.3214 41.1381 62.4367 39.8683C62.5874 38.2086 67.8334 38.6746 70.795 38.9504C73.0032 39.156 77.6683 40.4913 80.4231 41.3271C82.0946 41.8342 83.7938 42.0036 84.8627 41.8859C86.2985 41.7278 87.9884 40.3438 89.6209 39.9039C91.1944 39.4799 93.9284 39.6257 97.3003 40.0204C101.63 39.9444 102.976 39.5472 104.005 39.4284C104.484 39.3879 104.876 39.3879 105.281 39.3879" stroke="#94A3B8" stroke-width="2" stroke-linecap="round"/>
<path d="M105.519 39.6259C106.306 39.469 108.519 38.9934 113.387 38.8341C115.4 38.7682 116.609 37.8853 123.912 37.1315C132.101 36.2862 134.206 37.7236 136.107 38.3549C137.682 38.878 138.961 39.3073 140.429 40.0195C141.774 40.6725 142.928 41.3665 143.599 41.6067C145.924 42.4377 148.154 38.7604 152.067 36.8604C156.96 34.4849 158.855 33.8429 160.481 33.4838C162.388 33.0629 164.324 34.7845 165.595 35.9354C167.364 37.5374 168.761 40.3964 169.72 43.0667C170.275 44.615 170.435 47.297 169.964 50.2266C169.26 54.6087 163.083 55.3106 160.89 56.6243C160.075 57.1128 159.262 57.22 158.826 57.3413C156.925 57.8712 157.832 52.7947 157.557 51.0458C157.119 49.537 156.884 47.8011 156.488 45.9797C156.327 45.2568 156.249 44.9429 156.168 44.6195" stroke="#94A3B8" stroke-width="2" stroke-linecap="round"/>
<path d="M164.015 55.5579C164.566 55.7148 165.831 56.1904 167.969 57.4542C169.087 58.1149 170.033 59.6693 171.375 62.4704C173.389 66.6723 174.632 70.5267 175.344 72.9379C176.067 75.3843 176.691 78.2121 177.759 81.609C180.01 88.7716 179.947 91.1408 180.183 92.489C180.595 94.8383 180.579 97.718 180.699 99.5419C180.84 101.687 181.055 104.058 181.175 111.252C181.373 114.128 181.295 115.714 181.176 116.859C181.136 117.533 181.136 118.396 180.898 119.286" stroke="#94A3B8" stroke-width="2" stroke-linecap="round"/>
<path d="M84.3549 60.3135C84.2764 60.3135 84.1979 60.3135 84.1183 60.4704C84.0386 60.6274 83.9601 60.9412 84.0767 61.2206C84.1932 61.5 84.5071 61.7355 84.8257 61.7783C85.1443 61.8211 85.4582 61.6641 85.6592 61.4263C85.8601 61.1885 85.9386 60.8747 85.8613 60.5953C85.784 60.3158 85.5486 60.0804 85.0682 59.8379" stroke="#94A3B8" stroke-width="2" stroke-linecap="round"/>
<path d="M102.427 55.3199C100.924 55.3984 99.6592 55.5577 98.192 56.3068C96.642 57.0981 96.1684 58.9581 95.9675 61.0982C95.9224 61.5781 95.8498 61.8925 96.0055 62.2503C96.733 63.9219 98.5368 64.0373 100.871 64.4333C102.513 64.7118 105.261 65.3048 108.821 65.6614C114.749 66.2554 118.273 65.0693 120.214 64.5569C121.258 64.2811 122.159 63.2526 122.911 62.1053C123.838 60.6933 123.196 59.0533 122.524 57.7418C121.675 56.0837 119.32 55.3247 117.376 54.1358C114.895 52.6186 111.083 52.4665 108.145 52.9789C105.68 53.8124 104.729 54.2879 104.096 54.6042C103.778 54.7635 103.464 54.9205 102.903 55.0822" stroke="#94A3B8" stroke-width="2" stroke-linecap="round"/>
<path d="M104.567 58.8867L103.854 59.1245" stroke="#94A3B8" stroke-width="2" stroke-linecap="round"/>
<path d="M109.561 58.4111L110.512 59.1245" stroke="#94A3B8" stroke-width="2" stroke-linecap="round"/>
<path d="M135.718 59.1245C135.087 59.2815 134.055 59.8355 133.699 60.5061C133.487 60.9049 133.577 61.569 133.734 61.8139C133.891 62.0588 134.205 61.9019 134.445 61.6641C134.686 61.4263 134.842 61.1124 135.004 60.0757" stroke="#94A3B8" stroke-width="2" stroke-linecap="round"/>
<path d="M30.6143 76.0078C31.9578 75.9293 33.5391 75.77 35.2845 75.3753C36.7869 75.0355 38.3757 74.4241 39.9214 73.9093C41.6493 73.3337 42.8961 73.4706 43.726 73.9033C46.057 75.1189 45.3573 78.1384 45.5939 80.0823C45.8524 82.2068 46.4654 83.7693 46.6639 85.3149C46.7881 86.2815 47.495 86.9437 47.7732 87.4966C48.66 89.2587 44.0209 90.5891 42.3516 91.4606C41.2869 92.0164 40.2091 92.4129 39.4969 92.6127C39.1871 92.6996 38.9417 92.2631 38.7812 91.9445C38.0889 90.5702 38.1474 88.6963 37.5126 87.4265C36.8777 86.0782 36.4805 84.9677 35.7339 84.4921C35.0657 84.3304 33.8102 84.3304 32.5166 84.3304" stroke="#94A3B8" stroke-width="2" stroke-linecap="round"/>
<path d="M14.4448 83.6169C14.5233 83.6169 14.6018 83.6169 17.9772 83.6169C21.3526 83.6169 28.0226 83.6169 31.6156 83.7739C35.2087 83.9308 35.5225 84.2447 35.8019 84.6418C36.9976 86.3412 36.7971 88.758 36.9945 90.5854C37.1047 91.6063 37.1134 92.4913 37.1538 93.163C37.3022 95.6289 31.4135 95.5065 29.3566 95.8608C25.8635 96.7739 23.4951 96.9332 21.1196 96.9724C20.1565 97.0117 19.6857 97.0901 18.725 97.171" stroke="#94A3B8" stroke-width="2" stroke-linecap="round"/>
<path d="M34.4193 95.2688C34.9709 95.2688 36.236 95.5827 37.3881 96.5327C39.6572 98.4037 37.2775 103.901 36.5618 105.251C36.3949 105.566 36.2455 105.884 35.5369 106.045C33.5727 106.207 31.259 106.364 28.4579 106.602C26.6768 106.683 24.1658 106.683 21.5786 106.683" stroke="#94A3B8" stroke-width="2" stroke-linecap="round"/>
<path d="M35.8459 104.542C36.0028 104.542 36.7899 104.542 38.0169 104.66C38.919 104.747 39.4103 105.491 39.8063 106.044C40.8466 107.497 40.3639 113.298 40.1273 116.427C40.0781 117.077 39.6529 117.697 39.1 118.251C38.5255 118.827 36.495 118.81 34.0399 118.849C32.6784 118.871 28.6694 119.048 22.8078 119.126C19.7624 119.167 16.6087 119.523 12.8849 119.366C11.1383 119.293 10.4856 118.023 9.69492 116.837C8.0974 114.442 8.34307 112.318 7.86749 109.078C7.35296 105.573 7.70817 103.04 7.58927 100.171C7.28526 92.8351 8.01967 87.1125 8.92922 85.7666C10.0793 84.0647 11.6626 83.227 12.974 82.1938C14.3204 81.133 15.8668 79.8171 17.1342 78.7863C18.9228 77.3315 20.4609 76.1694 21.8507 75.4156C23.3191 75.1374 28.1938 74.8187 31.5205 75.0553C31.8795 75.135 32.1934 75.2135 32.7546 75.2943" stroke="#94A3B8" stroke-width="2" stroke-linecap="round"/>
<path d="M42.2661 90.9885C42.2661 92.0943 42.58 93.5186 43.1364 95.1831C43.5923 96.5469 43.9259 98.1936 44.839 100.136C46.2162 103.066 44.8865 109.831 43.895 112.619C42.6656 115.077 41.8714 117.062 41.4766 117.814C41.2388 118.173 40.925 118.487 40.3638 118.81" stroke="#94A3B8" stroke-width="2" stroke-linecap="round"/>
<path d="M26.8095 82.6659C26.8095 82.509 26.8095 80.7803 26.4564 76.5963C26.2411 74.0449 25.3971 70.6861 25.0332 67.1038C24.2977 59.8615 24.7479 55.7196 24.8668 53.9492C24.8287 46.6074 24.6694 44.3912 24.4721 41.7827C24.4316 40.287 24.4316 37.619 24.4316 34.8701" stroke="#94A3B8" stroke-width="2" stroke-linecap="round"/>
<path d="M9.92676 23.2183C13.0061 24.6379 16.4945 26.5426 17.7703 27.5734C19.0724 28.6256 18.9628 30.2664 19.2779 31.5362C19.4573 32.2592 20.1494 32.9629 20.663 33.7548C21.4749 35.0065 27.3187 34.6322 31.5169 33.9224C32.7411 33.7154 33.5441 32.8131 34.0981 32.0617C35.0903 30.7161 35.0517 28.4592 33.8306 24.2646C33.2571 22.2944 32.5977 21.1638 32.5953 18.4732C32.5936 16.5065 33.701 14.3535 35.0481 11.5761C35.33 10.9949 35.6033 10.701 35.45 10.5001C34.3338 9.03778 31.7321 10.6915 29.7894 11.0898C28.3496 11.385 26.8194 12.9838 25.8218 14.6127C25.6076 14.9626 25.3879 15.2856 25.0704 15.4865C21.2658 17.8947 13.4175 16.0822 12.8242 16.6743C11.9884 18.3008 11.8291 19.8012 11.7898 21.266C11.7506 21.8676 11.6721 22.1815 11.5913 22.7427" stroke="#94A3B8" stroke-width="2" stroke-linecap="round"/>
<path d="M8.02437 18.4625C6.91865 17.0429 5.65123 14.8243 4.81659 12.054C4.58414 11.2825 4.69532 10.4727 4.89149 9.99C5.59875 8.24972 8.65214 9.34559 10.7863 9.62381C15.4328 10.2295 16.8939 9.42644 20.2575 8.00446C20.976 7.70069 21.412 8.15189 21.6926 8.90211C22.5272 12.2775 23.319 13.5402 23.7566 14.9301C23.8755 15.288 24.0324 15.6803 24.4319 16.5601" stroke="#94A3B8" stroke-width="2" stroke-linecap="round"/>
<path d="M19.4385 6.33523C20.1471 6.17829 22.0446 5.70271 23.9101 5.14865C25.6552 4.63035 27.1999 4.03818 29.0618 3.99656C29.8246 3.97951 30.5314 4.43053 31.2043 4.94416C31.882 6.252 32.0413 8.30413 31.8452 10.6773C31.649 11.7949 31.2566 12.7365 30.8524 13.7067" stroke="#94A3B8" stroke-width="2" stroke-linecap="round"/>
<path d="M11.1157 7.04849C11.1157 6.42072 11.665 5.07721 12.7719 3.3354C15.0726 1.50322 20.2706 0.865945 26.2546 1.02289C28.3151 1.17983 28.3935 1.49371 28.4744 2.53048" stroke="#94A3B8" stroke-width="2" stroke-linecap="round"/>
<path d="M32.9922 23.2184C33.6223 22.6667 35.5175 21.4017 37.7004 20.2104C39.5627 19.194 42.4087 18.0013 44.0446 16.288C44.816 15.4802 45.6711 14.8981 46.2644 14.7769C48.5877 14.302 46.8648 20.0415 46.7055 21.5872C46.4292 24.2675 43.9353 26.7805 42.8664 28.2833C40.6687 31.3733 39.1795 32.0119 37.5577 32.7276C35.0562 33.2056 33.7911 33.3625 32.324 33.7192C31.9649 33.8381 31.651 33.995 31.3276 34.1567" stroke="#94A3B8" stroke-width="2" stroke-linecap="round"/>
<path d="M17.0606 29.8764C16.4304 29.7979 14.8491 29.3247 12.5116 28.6898C10.4432 28.128 7.63932 27.1846 5.5753 25.9184C3.45121 24.6153 2.0037 24.5665 1.44964 24.6831C1.14691 24.7467 1.05253 25.3489 1.01092 25.7484C0.822764 27.5547 3.10229 29.7099 5.04503 31.3769C6.34306 32.4906 8.25282 33.2007 10.1183 33.9557C11.7158 34.6022 13.4034 35.3408 16.2497 35.7807C17.9023 35.8212 20.8842 35.8212 22.5773 35.7819C24.2704 35.7427 24.5842 35.6642 25.1454 35.5834" stroke="#94A3B8" stroke-width="2" stroke-linecap="round"/>
<path d="M26.334 54.6065C26.334 53.9788 26.8048 53.1846 27.6751 52.3927C30.2782 50.0243 35.9217 50.0885 36.5934 50.2847C38.3705 50.8037 38.8512 52.6995 40.3576 53.376C42.5364 54.3544 45.6687 53.1061 46.6187 52.4308C46.961 52.1874 47.2547 52.6186 47.4153 53.1334C48.0954 55.3149 46.6365 58.0735 44.966 60.6238C44.6851 61.0527 44.4108 61.2599 44.1326 61.4597C43.8544 61.6594 43.5405 61.8163 43.0649 61.4264C40.0252 58.9338 39.5741 55.4864 38.9785 53.5436C38.5351 52.0976 38.3043 50.6497 38.3412 49.3407C38.3879 47.6803 40.3588 46.8451 42.021 45.4968C43.8148 44.0418 44.8768 43.1974 46.0658 42.5209C46.3618 42.3525 46.6983 42.3223 46.9385 42.5565C47.5673 43.1698 47.4973 44.9261 47.1834 46.6679C46.7037 49.3298 43.5405 49.0565 41.0865 49.5713C40.5253 49.6914 40.2114 49.7699 39.2258 49.8103C38.2401 49.8507 36.5922 49.8507 34.8944 49.8507" stroke="#94A3B8" stroke-width="2" stroke-linecap="round"/>
<path d="M26.0966 73.6297C24.9147 72.524 22.3823 71.0996 21.0673 69.9083C20.0426 68.98 19.2054 67.9275 18.2923 66.7385C17.3738 65.5426 17.2983 62.0826 17.6134 59.5276C17.8625 57.5074 18.8012 56.3566 19.7511 54.8122C21.3158 52.2683 21.2599 50.3358 21.2231 48.0756C21.1915 46.1403 19.0485 44.7858 17.4636 43.6717C15.6629 42.406 13.741 41.9275 11.8363 41.1345C10.1433 40.4296 8.98043 39.8659 8.22783 39.8231C7.88706 39.8037 7.86757 40.6435 8.02333 41.3592C8.76198 44.7536 11.5058 46.6738 12.6174 48.0613C14.1376 49.9587 14.9157 51.6674 16.0654 52.9764C16.3448 53.3343 16.5802 53.7267 16.7407 54.0857C16.9012 54.4448 16.9797 54.7587 17.0605 55.3199" stroke="#94A3B8" stroke-width="2" stroke-linecap="round"/>
<path d="M16.8224 68.1606C16.3492 67.6897 15.2434 66.4199 12.5552 63.6949C9.28799 60.3828 7.15857 60.0804 6.04691 58.6549C5.7337 58.2532 5.3371 57.8642 4.89957 57.6621C4.46204 57.46 3.99121 57.46 3.55249 57.7346C1.71445 58.8853 2.16023 61.4121 1.88201 63.0029C1.81325 63.3961 1.84159 63.8708 2.03777 64.1526C2.43203 64.7189 3.73677 64.9076 6.92554 66.4818C9.40807 67.742 13.6455 69.9392 15.9853 71.1496C18.3252 72.3599 18.6391 72.5169 18.9625 72.6786" stroke="#94A3B8" stroke-width="2" stroke-linecap="round"/>
<path d="M28.9497 77.1968C28.9497 76.6451 29.8913 74.9092 32.4262 71.7407C35.0253 68.4917 36.7872 67.376 38.258 66.5759C40.7204 65.2362 40.8392 72.2769 40.6822 73.2269C40.4057 74.9005 37.4388 74.5811 35.496 74.9758C33.7911 75.1351 31.5749 75.6083 29.2766 76.6772C28.5621 76.9566 27.6989 77.192 26.334 77.9101" stroke="#94A3B8" stroke-width="2" stroke-linecap="round"/>
</svg>
