<svg width="28" height="28" viewBox="0 0 28 28" fill="none" xmlns="http://www.w3.org/2000/svg">
<path d="M14.0001 5.54167C16.0651 5.54167 17.9142 6.25333 19.3726 7.64167L23.3684 3.64583C20.9417 1.38833 17.7742 0 14.0001 0C8.52841 0 3.79757 3.13833 1.49341 7.71167L6.14841 11.3225C7.25091 8.00333 10.3484 5.54167 14.0001 5.54167Z" fill="#EA4335"/>
<path d="M27.405 14.3208C27.405 13.405 27.3175 12.5183 27.1833 11.6666H14V16.9283H21.5483C21.21 18.655 20.23 20.125 18.76 21.1166L23.2692 24.6166C25.9 22.1783 27.405 18.5733 27.405 14.3208Z" fill="#4285F4"/>
<path d="M6.1425 16.6775C5.8625 15.8317 5.69917 14.9333 5.69917 14C5.69917 13.0667 5.85667 12.1683 6.1425 11.3225L1.4875 7.71167C0.536667 9.60167 0 11.7367 0 14C0 16.2633 0.536667 18.3983 1.49333 20.2883L6.1425 16.6775Z" fill="#FBBC05"/>
<path d="M14.0001 28C17.7801 28 20.9592 26.7575 23.2692 24.6108L18.76 21.1108C17.5059 21.9566 15.89 22.4525 14.0001 22.4525C10.3484 22.4525 7.25088 19.9908 6.14255 16.6716L1.48755 20.2825C3.79755 24.8616 8.52838 28 14.0001 28Z" fill="#34A853"/>
</svg>
