<svg width="182" height="101" viewBox="0 0 182 101" fill="none" xmlns="http://www.w3.org/2000/svg">
<path d="M138.413 77.1993V18.7769C141.27 20.3559 145.935 24.348 146.985 26.4462C147.21 26.8974 148.864 26.8974 149.691 26.4462L157.361 21.9348C160.97 19.228 160.519 20.807 159.842 21.9348C158.489 25.0176 155.872 31.8599 154.428 33.6644C153.887 34.3411 153.376 35.6946 153.977 35.6946C159.917 40.2059 169.316 49.0881 169.316 52.1611C169.316 53.5145 170.895 53.5145 171.797 53.5145C173.602 53.5897 177.572 53.695 179.015 53.5145C180.459 53.3341 180.97 54.7928 181.045 55.5447C180.519 57.1988 179.376 61.4095 179.015 65.0186C178.654 68.6277 176.76 69.2292 175.857 69.0788H163C156.684 79.1843 144.052 77.1993 138.413 77.1993Z" fill="#FFD63A"/>
<path fill-rule="evenodd" clip-rule="evenodd" d="M13.4476 42.9128C12.4617 46.117 9.11913 47.8399 6.06863 46.8676L5.98873 46.5686L5.9884 46.5674C5.84912 46.046 5.70446 45.5046 5.55266 44.9429C3.29697 36.5968 15.2521 37.048 13.4476 42.9128ZM18.2217 56.4151C17.9589 55.4538 17.7342 54.4877 17.5472 53.5145H39.6136V44.9429H16.8665C17.0936 36.4874 19.8238 27.1271 24.9516 15.6189C38.2792 5.50662 57.3313 0.358498 77.0581 0.45093C97.0686 0.544692 117.773 6.03085 133.902 17.1979V30.0553C120.743 24.3409 93.9758 14.2655 92.1712 19.6792C90.3667 25.0928 90.5171 30.5441 91.269 32.1982L133.902 38.8525V49.4543L110.893 47.1986V53.5145H133.902V62.0862C116.243 64.6678 106.475 65.4931 89.4644 65.0186V77.1993C107.851 76.6887 117.544 74.2902 133.902 66.8231V77.1993C120.68 86.8532 98.0715 89.7544 77.0581 89.7527C61.9347 89.7514 47.6374 88.2466 38.2602 86.6732C30.6843 78.7951 25.1637 71.8545 21.6277 65.0186C20.1454 62.1528 19.0118 59.3055 18.2217 56.4151ZM33.9744 65.0186H77.0581V80.5828C64.4153 79.7736 57.3324 79.3804 44.5761 77.1993C39.8196 73.7428 37.6801 70.6924 33.9744 65.0186ZM50.4409 53.5145H77.0581H98.2616V46.0707L77.0581 44.9429H50.4409V53.5145ZM77.0581 14.4911C62.7172 13.086 53.4121 15.8096 36.9068 21.9348C34.2177 28.3581 33.2977 30.5065 32.621 33.89L77.0581 32.1982C77.0581 32.1982 77.0581 20.3491 77.0581 14.4911Z" fill="#FFD63A"/>
<path d="M7.80835 23.7394C4.95114 24.7169 -0.492594 28.9726 0.590138 38.1758C1.20412 43.3946 3.5357 46.0602 6.06863 46.8676M20.4402 55.3191C20.106 55.6092 19.3647 56.0446 18.2217 56.4151M77.0581 89.7527C61.9347 89.7514 47.6374 88.2466 38.2602 86.6732C30.6843 78.7951 25.1637 71.8545 21.6277 65.0186M77.0581 89.7527C98.0715 89.7544 120.68 86.8532 133.902 77.1993V66.8231C117.544 74.2902 107.851 76.6887 89.4644 77.1993V65.0186M77.0581 89.7527V80.5828M77.0581 0.45093C57.3313 0.358498 38.2792 5.50662 24.9516 15.6189C19.8238 27.1271 17.0936 36.4874 16.8665 44.9429H39.6136M77.0581 0.45093C97.0686 0.544692 117.773 6.03085 133.902 17.1979V30.0553C120.743 24.3409 93.9758 14.2655 92.1712 19.6792C90.3667 25.0928 90.5171 30.5441 91.269 32.1982L133.902 38.8525V49.4543L110.893 47.1986M77.0581 0.45093C77.0581 0.45093 77.0581 7.95096 77.0581 14.4911M110.893 47.1986V53.5145H133.902V62.0862C116.243 64.6678 106.475 65.4931 89.4644 65.0186M110.893 47.1986L98.2616 46.0707M89.4644 65.0186H77.0581M77.0581 44.9429L98.2616 46.0707M77.0581 44.9429V32.1982M77.0581 44.9429H50.4409M98.2616 46.0707V53.5145H77.0581M77.0581 53.5145H50.4409V44.9429M77.0581 53.5145V65.0186M77.0581 14.4911C62.7172 13.086 53.4121 15.8096 36.9068 21.9348C34.2177 28.3581 33.2977 30.5065 32.621 33.89L77.0581 32.1982M77.0581 14.4911C77.0581 20.3491 77.0581 32.1982 77.0581 32.1982M50.4409 44.9429H39.6136M39.6136 44.9429V53.5145H17.5472C17.7342 54.4877 17.9589 55.4538 18.2217 56.4151M77.0581 65.0186H33.9744M77.0581 65.0186V80.5828M33.9744 65.0186C37.6801 70.6924 39.8196 73.7428 44.5761 77.1993C57.3324 79.3804 64.4153 79.7736 77.0581 80.5828M33.9744 65.0186H21.6277M21.6277 65.0186C20.1454 62.1528 19.0118 59.3055 18.2217 56.4151M6.06863 46.8676C9.11913 47.8399 12.4617 46.117 13.4476 42.9128C15.2521 37.048 3.29697 36.5968 5.55266 44.9429C5.70446 45.5046 5.84912 46.046 5.9884 46.5674L5.98873 46.5686M6.06863 46.8676C7.94469 53.8864 8.88361 57.1626 13.4476 57.1236C15.457 57.1065 17.0503 56.7949 18.2217 56.4151M6.06863 46.8676C6.04219 46.7687 6.01556 46.669 5.98873 46.5686M6.06863 46.8676L5.98873 46.5686M138.413 18.7769V77.1993C144.052 77.1993 156.684 79.1843 163 69.0788H175.857C176.76 69.2292 178.654 68.6277 179.015 65.0186C179.376 61.4095 180.519 57.1988 181.045 55.5447C180.97 54.7928 180.459 53.3341 179.015 53.5145C177.572 53.695 173.602 53.5897 171.797 53.5145C170.895 53.5145 169.316 53.5145 169.316 52.1611C169.316 49.0881 159.917 40.2059 153.977 35.6946C153.376 35.6946 153.887 34.3411 154.428 33.6644C155.872 31.8599 158.489 25.0176 159.842 21.9348C160.519 20.807 160.97 19.228 157.361 21.9348L149.691 26.4462C148.864 26.8974 147.21 26.8974 146.985 26.4462C145.935 24.348 141.27 20.3559 138.413 18.7769Z" stroke="black" stroke-width="0.8993"/>
<path d="M164.035 49.4858C163.85 49.4858 163.605 50.2599 163.556 51.4037C163.54 51.787 164.016 51.7158 164.276 51.6514C164.535 51.587 164.685 51.5177 164.774 51.4589C165.169 51.198 164.887 50.2574 164.724 49.9247C164.643 49.7582 164.467 49.7193 164.31 49.6961C164.074 49.661 163.814 49.6955 163.599 49.7943C163.381 49.8939 163.3 50.1615 163.242 50.3885C163.187 50.6 163.252 50.8266 163.375 51.0074C163.592 51.3295 164.22 51.0731 164.413 51.0092C164.691 50.9167 164.653 50.4675 164.63 50.2392C164.618 50.1175 164.363 50.1394 164.194 50.1393C164.116 50.1392 164.059 50.1853 164.012 50.2494C163.965 50.3134 163.931 50.4058 163.913 50.4997C163.895 50.5935 163.895 50.6859 163.958 50.7162C164.022 50.7465 164.149 50.7118 164.243 50.6651C164.338 50.6183 164.395 50.5606 164.431 50.4962C164.478 50.3624 164.49 50.2333 164.478 50.1226C164.467 50.0698 164.444 50.0236 164.315 49.9409" stroke="black" stroke-width="0.8993" stroke-linecap="round"/>
<path d="M158.898 46.5729C159.371 45.6703 159.844 44.7677 160.174 44.3457C160.503 43.9237 160.675 44.0096 160.85 44.1184C161.024 44.2271 161.196 44.3561 161.373 44.4889" stroke="black" stroke-width="0.8993" stroke-linecap="round"/>
<path d="M132.548 82.6128C127.209 85.1692 116.487 90.1468 116.307 89.6054C116.081 88.9287 115.856 99.0793 118.111 99.0793C119.916 99.0793 123.224 92.7634 124.653 89.6054C125.029 92.7634 126.232 99.0793 128.037 99.0793C130.292 99.0793 132.548 89.6054 132.548 87.3497C132.548 85.3322 132.398 83.3647 132.548 82.6128Z" fill="#FFD63A" stroke="black" stroke-width="0.8993"/>
<path d="M48.4108 91.7156C45.5568 91.2468 42.433 90.684 40.2903 90.2822C40.2903 93.1394 40.6963 98.899 42.3204 99.0794C43.9445 99.2599 47.0574 94.2454 48.4108 91.7156Z" fill="#FFD63A"/>
<path d="M49.9898 100.433C50.6665 100.884 56.0801 92.0868 55.4034 92.5379C55.1031 92.7381 51.9662 92.2997 48.4108 91.7156C48.7115 94.471 49.4484 100.072 49.9898 100.433Z" fill="#FFD63A"/>
<path d="M48.4108 91.7156C45.5568 91.2468 42.433 90.684 40.2903 90.2822C40.2903 93.1394 40.6963 98.899 42.3204 99.0794C43.9445 99.2599 47.0574 94.2454 48.4108 91.7156ZM48.4108 91.7156C51.9662 92.2997 55.1031 92.7381 55.4034 92.5379C56.0801 92.0868 50.6665 100.884 49.9898 100.433C49.4484 100.072 48.7115 94.471 48.4108 91.7156Z" stroke="black" stroke-width="0.8993"/>
</svg>
