<svg width="90" height="85" viewBox="0 0 90 85" fill="none" xmlns="http://www.w3.org/2000/svg">
<path d="M63.938 7.46107L51.3404 28.3973C50.6088 29.6133 51.0348 31.1937 52.2785 31.8772L67.209 40.0825C68.3927 40.7331 69.8791 40.3258 70.5658 39.1627L87.7732 10.0211C88.7573 8.35459 87.5559 6.25 85.6205 6.25H66.0801C65.203 6.25 64.3901 6.70958 63.938 7.46107Z" fill="#EA4335"/>
<path d="M26.062 7.46107L38.6596 28.3973C39.3912 29.6133 38.9652 31.1937 37.7215 31.8772L22.791 40.0825C21.6073 40.7331 20.1209 40.3258 19.4342 39.1627L2.22676 10.0211C1.24271 8.35459 2.4441 6.25 4.37949 6.25H23.9199C24.797 6.25 25.6099 6.70958 26.062 7.46107Z" fill="#EA4335"/>
<path d="M77.5 50.625C77.5 62.4296 71.2064 72.7643 61.7917 78.4567C56.891 81.4198 51.1446 83.125 45 83.125C27.0507 83.125 12.5 68.5743 12.5 50.625C12.5 32.6757 27.0507 18.125 45 18.125C62.9493 18.125 77.5 32.6757 77.5 50.625Z" fill="#FCD34D"/>
<path d="M64.5 50.625C64.5 61.3946 55.7696 70.125 45 70.125C34.2304 70.125 25.5 61.3946 25.5 50.625C25.5 39.8554 34.2304 31.125 45 31.125C55.7696 31.125 64.5 39.8554 64.5 50.625Z" fill="#FBBF24"/>
</svg>
