<svg xmlns="http://www.w3.org/2000/svg" width="121" height="88" viewBox="0 0 121 88" fill="none">
  <path d="M94.5546 39.9244C98.5632 41.2681 96.8608 45.4517 95.7904 48.3408C95.5977 48.8609 95.3522 49.615 94.987 50.4387C95.0566 51.2734 96.1556 53.0668 99.9949 53.563C103.834 54.0591 105.321 71.6821 105.584 80.4315C127.093 47.7621 100.469 28.3167 86.8049 15.804C80.4618 9.99551 69.7439 5.98062 52.3471 6.94751C13.0307 9.13265 4.74332 30.7953 5.51421 41.3534C8.3042 38.0385 15.7623 33.5745 37.6835 28.7219C68.2996 21.9446 90.546 38.5807 94.5546 39.9244Z" fill="#EA4335"/>
  <path d="M6.94128 58.0513C22.1609 52.8142 52.6715 44.6877 69.1386 47.8154C71.9648 48.3521 74.3772 49.2204 76.2278 50.4916C80.8326 53.6548 84.3243 55.036 86.987 55.3339C91.812 55.8738 93.9151 52.8564 94.987 50.4387C95.3522 49.615 95.5977 48.8609 95.7904 48.3408C96.8608 45.4517 98.5632 41.2681 94.5546 39.9244C90.546 38.5807 68.2996 21.9446 37.6835 28.7219C15.7623 33.5745 8.3042 38.0385 5.51421 41.3534C4.40758 42.6682 4.03537 43.8023 3.78635 44.708C2.9095 47.8974 3.29947 59.2633 6.94128 58.0513Z" fill="white"/>
  <path d="M5.51421 41.3534C8.3042 38.0385 15.7623 33.5745 37.6835 28.7219C68.2996 21.9446 90.546 38.5807 94.5546 39.9244C98.5632 41.2681 96.8608 45.4517 95.7904 48.3408C95.5977 48.8609 95.3522 49.615 94.987 50.4387M5.51421 41.3534C4.40758 42.6682 4.03537 43.8023 3.78635 44.708C2.9095 47.8974 3.29947 59.2633 6.94128 58.0513C22.1609 52.8142 52.6715 44.6877 69.1386 47.8154C71.9648 48.3521 74.3772 49.2204 76.2278 50.4916C80.8326 53.6548 84.3243 55.036 86.987 55.3339C91.812 55.8738 93.9151 52.8564 94.987 50.4387M5.51421 41.3534C4.74332 30.7953 13.0307 9.13265 52.3471 6.94751C69.7439 5.98062 80.4618 9.99551 86.8049 15.804C100.469 28.3167 127.093 47.7621 105.584 80.4315C105.321 71.6821 103.834 54.0591 99.9949 53.563C96.1556 53.0668 95.0566 51.2734 94.987 50.4387" stroke="#C51E3A" stroke-width="2.22222"/>
  <path d="M105.883 86.4706C108.769 86.4706 111.109 84.1311 111.109 81.2451C111.109 78.3591 108.769 76.0195 105.883 76.0195C102.997 76.0195 100.658 78.3591 100.658 81.2451C100.658 84.1311 102.997 86.4706 105.883 86.4706Z" fill="white"/>
  <path d="M105.883 86.4706C108.769 86.4706 111.109 84.1311 111.109 81.2451C111.109 78.3591 108.769 76.0195 105.883 76.0195C102.997 76.0195 100.658 78.3591 100.658 81.2451C100.658 84.1311 102.997 86.4706 105.883 86.4706Z" stroke="#C51E3A" stroke-width="2.22222"/>
</svg>