<svg width="82" height="93" viewBox="0 0 82 93" fill="none" xmlns="http://www.w3.org/2000/svg">
<path d="M0.136168 84.8738C0.813645 80.6938 3.74567 42.2461 5.23662 22.0747C5.30258 21.1824 6.04515 20.5 6.93994 20.5H75.0601C75.9549 20.5 76.6974 21.1824 76.7634 22.0747C78.2543 42.2461 81.1864 80.6938 81.8638 84.8738C82.7333 90.2383 79.2555 92.25 76.6472 92.25H5.35283C2.7445 92.25 -0.733275 90.2383 0.136168 84.8738Z" fill="#EA4335"/>
<path d="M57.4505 9.64113V27.3333C57.4505 28.2768 58.2153 29.0417 59.1588 29.0417H61.4998C62.4433 29.0417 63.2082 28.2768 63.2082 27.3333V9.64113C63.2082 2.12501 58.273 0 53.3378 0H28.6619C23.7267 0 18.7915 2.12501 18.7915 9.64113V27.3333C18.7915 28.2768 19.5563 29.0417 20.4998 29.0417H22.8409C23.7844 29.0417 24.5492 28.2768 24.5492 27.3333V9.64113C24.5492 6.29621 26.1943 4.95824 28.6619 4.95824H53.3378C55.8054 4.95824 57.4505 6.29621 57.4505 9.64113Z" fill="#8D3928"/>
<circle cx="41" cy="58.0835" r="20.5" fill="#FFD63A"/>
<path d="M45.1204 55.6955C45.076 55.0904 44.9113 54.561 44.6266 54.1073C44.3508 53.6535 43.9593 53.3065 43.4521 53.0662C42.945 52.8171 42.3577 52.6925 41.6904 52.6925C40.8007 52.6925 40.0444 52.9105 39.4215 53.3465C38.7987 53.7825 38.3183 54.4142 37.9801 55.2417C37.6509 56.0603 37.4863 57.0435 37.4863 58.1912C37.4863 59.3924 37.6509 60.3978 37.9801 61.2075C38.3183 62.0172 38.7987 62.6356 39.4215 63.0627C40.0444 63.4808 40.7829 63.6899 41.637 63.6899C42.2955 63.6899 42.8649 63.5787 43.3454 63.3563C43.8347 63.1249 44.2262 62.8046 44.5199 62.3953C44.8224 61.9772 45.0226 61.4833 45.1204 60.9139L50.2855 60.9673C50.1876 62.1329 49.7872 63.2629 49.0843 64.3573C48.3814 65.4517 47.3849 66.3548 46.0947 67.0666C44.8135 67.7695 43.2964 68.1209 41.5436 68.1209C39.7641 68.1209 38.1714 67.7339 36.7656 66.9598C35.3598 66.1857 34.2565 65.0513 33.4557 63.5565C32.6638 62.0528 32.2679 60.2644 32.2679 58.1912C32.2679 56.1003 32.6727 54.3075 33.4824 52.8127C34.301 51.3179 35.4087 50.1879 36.8057 49.4227C38.2026 48.6486 39.7819 48.2616 41.5436 48.2616C43.1541 48.2616 44.591 48.5552 45.8545 49.1424C47.1179 49.7208 48.1367 50.5705 48.9108 51.6916C49.6849 52.8127 50.1431 54.1473 50.2855 55.6955H45.1204Z" fill="#FB923C"/>
</svg>
