<svg width="90" height="70" viewBox="0 0 90 70" fill="none" xmlns="http://www.w3.org/2000/svg">
<path d="M8.75 67.125V24.0241C8.75 23.3085 9.01686 22.6186 9.49843 22.0893L19.9236 10.6306C20.3699 10.1401 20.9719 9.81894 21.6278 9.72152L44.5776 6.31274C44.8577 6.27114 45.1423 6.27114 45.4224 6.31274L68.3722 9.72152C69.0281 9.81894 69.6301 10.1401 70.0764 10.6306L80.5016 22.0893C80.9831 22.6186 81.25 23.3085 81.25 24.0241V67.125C81.25 68.7128 79.9628 70 78.375 70H45H11.625C10.0372 70 8.75 68.7128 8.75 67.125Z" fill="#FF5F3F"/>
<path d="M25.3125 67.174L42.1875 38.9131M25.3125 38.9131L42.1875 67.174" stroke="#F5C6BC" stroke-width="2.875" stroke-linecap="round" stroke-linejoin="round"/>
<path d="M25.375 39.6562H42.125C42.522 39.6562 42.8438 39.978 42.8438 40.375V67.8438H24.6562V40.375C24.6562 39.978 24.978 39.6563 25.375 39.6562Z" stroke="#8D3928" stroke-width="4.3125"/>
<path d="M47.8125 67.174L64.6875 38.9131M47.8125 38.9131L64.6875 67.174" stroke="#F5C6BC" stroke-width="2.875" stroke-linecap="round" stroke-linejoin="round"/>
<path d="M47.875 39.6562H64.625C65.022 39.6562 65.3438 39.978 65.3438 40.375V67.8438H47.1562V40.375C47.1562 39.978 47.478 39.6563 47.875 39.6562Z" stroke="#8D3928" stroke-width="4.3125"/>
<path d="M50.875 16.0625C53.2567 16.0625 55.1875 17.9933 55.1875 20.375V27.125C55.1875 29.5067 53.2567 31.4375 50.875 31.4375H39.125C36.7433 31.4375 34.8125 29.5067 34.8125 27.125V20.375C34.8125 17.9933 36.7433 16.0625 39.125 16.0625H50.875Z" fill="#C1C3FB" stroke="#8D3928" stroke-width="2.875"/>
<path d="M19.9238 6.22737L44.3071 0.172079C44.7621 0.0590758 45.2379 0.0590759 45.6929 0.172079L70.0762 6.22737C70.4962 6.33165 70.8871 6.52938 71.22 6.80581L88.0917 20.8164C89.1881 21.7268 89.452 23.303 88.7121 24.5209L87.8393 25.9577C86.9395 27.4388 84.9436 27.7931 83.589 26.7122L69.2543 15.2742C68.9452 15.0275 68.5886 14.8473 68.2066 14.7448L45.7455 8.71456C45.2571 8.58346 44.7429 8.58346 44.2545 8.71456L21.7934 14.7448C21.4114 14.8473 21.0548 15.0275 20.7457 15.2742L6.411 26.7122C5.0564 27.7931 3.06054 27.4388 2.16075 25.9577L1.28789 24.5209C0.547958 23.303 0.811909 21.7268 1.90826 20.8164L18.78 6.80581C19.1129 6.52938 19.5038 6.33165 19.9238 6.22737Z" fill="#8D3928"/>
</svg>
